<?xml version="1.0" encoding="UTF-8" standalone="no"?>
<svg
   xmlns:dc="http://purl.org/dc/elements/1.1/"
   xmlns:cc="http://creativecommons.org/ns#"
   xmlns:rdf="http://www.w3.org/1999/02/22-rdf-syntax-ns#"
   xmlns:svg="http://www.w3.org/2000/svg"
   xmlns="http://www.w3.org/2000/svg"
   xmlns:sodipodi="http://sodipodi.sourceforge.net/DTD/sodipodi-0.dtd"
   xmlns:inkscape="http://www.inkscape.org/namespaces/inkscape"
   aria-hidden="true"
   focusable="false"
   data-prefix="fas"
   data-icon="envelope"
   class="svg-inline--fa fa-envelope fa-w-16"
   role="img"
   viewBox="0 0 1000 1000"
   version="1.1"
   id="svg4"
   sodipodi:docname="envelope_icon.svg"
   width="1000"
   height="1000"
   inkscape:version="1.0.1 (3bc2e813f5, 2020-09-07)">
  <metadata
     id="metadata10">
    <rdf:RDF>
      <cc:Work
         rdf:about="">
        <dc:format>image/svg+xml</dc:format>
        <dc:type
           rdf:resource="http://purl.org/dc/dcmitype/StillImage" />
        <dc:title></dc:title>
      </cc:Work>
    </rdf:RDF>
  </metadata>
  <defs
     id="defs8" />
  <sodipodi:namedview
     pagecolor="#ffffff"
     bordercolor="#666666"
     borderopacity="1"
     objecttolerance="10"
     gridtolerance="10"
     guidetolerance="10"
     inkscape:pageopacity="0"
     inkscape:pageshadow="2"
     inkscape:window-width="2560"
     inkscape:window-height="1361"
     id="namedview6"
     showgrid="false"
     inkscape:zoom="0.984375"
     inkscape:cx="432.36476"
     inkscape:cy="452.20275"
     inkscape:window-x="-9"
     inkscape:window-y="-9"
     inkscape:window-maximized="1"
     inkscape:current-layer="svg4" />
  <g
     id="g839"
     transform="translate(255.72573,208.87924)">
    <circle
       style="fill:#333333;stroke-width:13.2474"
       id="path835"
       cx="246.0766"
       cy="291.85327"
       r="500" />
    <path
       fill="currentColor"
       d="m 492.3766,226.65327 c 3.9,-3.1 9.7,-0.2 9.7,4.7 v 204.5 c 0,26.5 -21.5,48 -48,48 H 38.076599 c -26.5,0 -47.9999999,-21.5 -47.9999999,-48 v -204.4 c 0,-5 5.7,-7.8 9.70000002,-4.7 22.39999988,17.4 52.09999988,39.5 154.10000088,113.6 21.1,15.4 56.7,47.8 92.2,47.6 35.7,0.3 72,-32.8 92.3,-47.6 102,-74.1 131.6,-96.3 154,-113.7 z m -246.3,129.2 c 23.2,0.4 56.6,-29.2 73.4,-41.4 132.7,-96.3 142.8,-104.7 173.4,-128.7 5.8,-4.5 9.2,-11.5 9.2,-18.9 v -19 c 0,-26.5 -21.5,-47.999999 -48,-47.999999 H 38.076599 c -26.5,0 -47.9999999,21.499999 -47.9999999,47.999999 v 19 c 0,7.4 3.4,14.3 9.20000002,18.9 30.59999988,23.9 40.69999988,32.4 173.40000088,128.7 16.8,12.2 50.2,41.8 73.4,41.4 z"
       id="path2"
       style="fill:#ffffff" />
  </g>
</svg>
