<?xml version="1.0" encoding="UTF-8" standalone="no"?>
<svg
   xmlns:dc="http://purl.org/dc/elements/1.1/"
   xmlns:cc="http://creativecommons.org/ns#"
   xmlns:rdf="http://www.w3.org/1999/02/22-rdf-syntax-ns#"
   xmlns:svg="http://www.w3.org/2000/svg"
   xmlns="http://www.w3.org/2000/svg"
   xmlns:sodipodi="http://sodipodi.sourceforge.net/DTD/sodipodi-0.dtd"
   xmlns:inkscape="http://www.inkscape.org/namespaces/inkscape"
   aria-hidden="true"
   focusable="false"
   data-prefix="fas"
   data-icon="phone"
   class="svg-inline--fa fa-phone fa-w-16"
   role="img"
   viewBox="0 0 1000 1000"
   version="1.1"
   id="svg4"
   sodipodi:docname="phone_icon.svg"
   width="1000"
   height="1000"
   inkscape:version="1.0.1 (3bc2e813f5, 2020-09-07)">
  <metadata
     id="metadata10">
    <rdf:RDF>
      <cc:Work
         rdf:about="">
        <dc:format>image/svg+xml</dc:format>
        <dc:type
           rdf:resource="http://purl.org/dc/dcmitype/StillImage" />
        <dc:title></dc:title>
      </cc:Work>
    </rdf:RDF>
  </metadata>
  <defs
     id="defs8" />
  <sodipodi:namedview
     pagecolor="#ffffff"
     bordercolor="#666666"
     borderopacity="1"
     objecttolerance="10"
     gridtolerance="10"
     guidetolerance="10"
     inkscape:pageopacity="0"
     inkscape:pageshadow="2"
     inkscape:window-width="2560"
     inkscape:window-height="1361"
     id="namedview6"
     showgrid="false"
     inkscape:zoom="0.984375"
     inkscape:cx="256"
     inkscape:cy="490.92846"
     inkscape:window-x="-9"
     inkscape:window-y="-9"
     inkscape:window-maximized="1"
     inkscape:current-layer="svg4" />
  <g
     id="g839"
     transform="translate(536.34921,152.44444)">
    <circle
       style="fill:#333333;stroke-width:14.94"
       id="path835"
       cx="-35.04763"
       cy="347.61905"
       r="500" />
    <path
       fill="currentColor"
       d="M 202.35758,116.22446 98.357578,92.224456 c -11.3,-2.6 -22.9,3.3 -27.5,13.900004 l -48,112 c -4.2,9.8 -1.4,21.3 6.9,28 l 60.6,49.6 c -36,76.7 -98.9000004,140.5 -177.2,177.2 l -49.599998,-60.6 c -6.8,-8.3 -18.2,-11.1 -28,-6.9 l -112,48 c -10.7,4.7 -16.6,16.3 -14,27.6 l 24,104 c 2.5,10.8 12.1,18.6 23.4,18.6 256.099998,0 464,-207.5 464,-464 0,-11.2 -7.7,-20.9 -18.6,-23.4 z"
       id="path2"
       style="fill:#ffffff" />
  </g>
</svg>
